<svg xmlns="http://www.w3.org/2000/svg" width="30" height="30" viewBox="0 0 30 30"><defs><style>.a,.b{fill:#fff;}.a{opacity:0;}</style></defs><rect class="a" width="30" height="30" transform="translate(30 30) rotate(180)"/><path class="b" d="M26.493,4.312a1.3,1.3,0,0,0-1.12-.275L15,6.442,4.627,4.009a1.3,1.3,0,0,0-1.139.278A1.392,1.392,0,0,0,3,5.384V22.152a1.367,1.367,0,0,0,1.04,1.374L14.707,26h.587L25.96,23.526A1.367,1.367,0,0,0,27,22.152V5.384A1.39,1.39,0,0,0,26.493,4.312ZM5.667,7.1l8,1.855v13.95l-8-1.855Zm18.667,13.95-8,1.855V8.957l8-1.855Z" transform="translate(0)"/></svg>