<svg xmlns="http://www.w3.org/2000/svg" width="30" height="30" viewBox="0 0 30 30"><defs><style>.a,.b{fill:#fff;}.a{opacity:0;}</style></defs><rect class="a" width="30" height="30"/><path class="b" d="M10,13A5,5,0,1,0,5,8a5,5,0,0,0,5,5Zm0-7.5A2.5,2.5,0,1,1,7.5,8,2.5,2.5,0,0,1,10,5.5Z" transform="translate(1.25 0.75)"/><path class="b" d="M17.75,14.5A3.75,3.75,0,1,0,14,10.75,3.75,3.75,0,0,0,17.75,14.5Zm0-5a1.25,1.25,0,1,1-1.25,1.25A1.25,1.25,0,0,1,17.75,9.5Z" transform="translate(3.5 1.75)"/><path class="b" d="M20.75,14.248a6.25,6.25,0,0,0-3.825,1.313A8.75,8.75,0,0,0,2,21.748a1.25,1.25,0,1,0,2.5,0,6.25,6.25,0,0,1,12.5,0,1.25,1.25,0,1,0,2.5,0,8.625,8.625,0,0,0-1.075-4.187A3.75,3.75,0,0,1,24.5,20.5a1.25,1.25,0,1,0,2.5,0A6.25,6.25,0,0,0,20.75,14.248Z" transform="translate(0.5 3.252)"/></svg>